# Blender v2.83.5 OBJ File: ''
# www.blender.org
mtllib ship2.mtl
o Cube
v 1.000000 0.500000 -3.441931
v 1.000000 -0.500000 -3.441931
v 1.000000 0.246484 3.558069
v 1.000000 -0.246484 3.558069
v -1.000000 0.500000 -3.441931
v -1.000000 -0.500000 -3.441931
v -1.000000 0.246484 3.558069
v -1.000000 -0.246484 3.558069
v 0.500000 0.250000 -5.441931
v 0.500000 -0.250000 -5.441931
v -0.500000 0.250000 -5.441931
v -0.500000 -0.250000 -5.441931
v 1.000000 0.160000 -2.341930
v 1.000000 -0.160000 -2.341930
v 1.000000 0.160000 3.258070
v 1.000000 -0.160000 3.258070
v -1.000000 0.160000 -2.341930
v -1.000000 -0.160000 -2.341930
v -1.000000 0.160000 3.258070
v -1.000000 -0.160000 3.258070
v 0.483401 0.703532 -0.117292
v 0.483401 0.580982 3.266515
v -0.483401 0.703532 -0.117292
v -0.483401 0.580982 3.266515
v 0.615871 0.310729 4.006360
v -0.615871 0.310729 4.006360
v 0.297713 0.516737 3.826801
v -0.297713 0.516737 3.826801
v 0.451770 0.338175 4.989501
v -0.451770 0.338175 4.989501
v 0.218386 0.489291 4.857786
v -0.218386 0.489291 4.857786
v 0.282005 0.738901 -2.938536
v -0.282005 0.738901 -2.938536
v 0.136322 1.049768 -2.052146
v -0.136322 1.049768 -2.052146
v 6.878386 0.160000 0.558074
v 7.000000 0.034098 0.743972
v 7.000000 -0.034098 0.743972
v 6.878386 -0.160000 0.558074
v 7.000000 0.034098 2.172168
v 6.878125 0.160000 2.317570
v 6.878125 -0.160000 2.317570
v 7.000000 -0.034098 2.172168
v -7.000000 0.034098 0.743972
v -6.878386 0.160000 0.558074
v -7.000000 -0.034098 0.743972
v -6.878386 -0.160000 0.558074
v -6.878125 0.160000 2.317570
v -7.000000 0.034098 2.172168
v -6.878125 -0.160000 2.317570
v -7.000000 -0.034098 2.172168
vt 0.875000 0.750000
vt 0.875000 0.500000
vt 0.875000 0.500000
vt 0.625000 0.750000
vt 0.375000 1.000000
vt 0.375000 0.750000
vt 0.125000 0.750000
vt 0.125000 0.500000
vt 0.125000 0.500000
vt 0.375000 0.500000
vt 0.625000 0.500000
vt 0.375000 0.500000
vt 0.625000 0.500000
vt 0.625000 0.250000
vt 0.375000 0.500000
vt 0.375000 0.250000
vt 0.625000 0.250000
vt 0.375000 0.250000
vt 0.875000 0.500000
vt 0.125000 0.750000
vt 0.125000 0.500000
vt 0.375000 0.750000
vt 0.625000 0.500000
vt 0.625000 0.750000
vt 0.375000 0.500000
vt 0.375000 0.750000
vt 0.875000 0.500000
vt 0.875000 0.750000
vt 0.625000 0.250000
vt 0.625000 1.000000
vt 0.375000 1.000000
vt 0.625000 0.500000
vt 0.875000 0.500000
vt 0.875000 0.750000
vt 0.526639 0.518735
vt 0.473361 0.731265
vt 0.473361 0.518735
vt 0.625000 0.750000
vt 0.375000 0.250000
vt 0.625000 0.250000
vt 0.526639 0.018735
vt 0.473361 0.231265
vt 0.473361 0.018735
vt 0.625000 1.000000
vt 0.375000 1.000000
vt 0.625000 0.750000
vt 0.625000 0.500000
vt 0.875000 0.500000
vt 0.875000 0.500000
vt 0.875000 0.750000
vt 0.875000 0.750000
vt 0.875000 0.750000
vt 0.875000 0.750000
vt 0.625000 0.750000
vt 0.625000 1.000000
vt 0.625000 0.750000
vt 0.625000 0.750000
vt 0.625000 1.000000
vt 0.625000 1.000000
vt 0.625000 0.750000
vt 0.625000 0.500000
vt 0.625000 0.500000
vt 0.526639 0.731265
vt 0.125000 0.750000
vt 0.125000 0.518735
vt 0.625000 1.000000
vt 0.473361 1.000000
vt 0.375000 0.250000
vt 0.526639 0.231265
vt 0.875000 0.518735
vt 0.875000 0.731265
vt 0.125000 0.500000
vt 0.875000 0.750000
vt 0.125000 0.731265
vt 0.526639 1.000000
vn -0.5310 0.8468 0.0307
vn 0.0000 0.0000 1.0000
vn -1.0000 0.0000 0.0000
vn 0.0000 -0.9993 0.0362
vn 1.0000 0.0000 0.0000
vn 0.9701 0.0000 -0.2425
vn 0.0000 0.0000 -1.0000
vn -0.9701 0.0000 -0.2425
vn 0.0000 -0.9923 -0.1240
vn 0.0000 0.9923 -0.1240
vn 0.0000 -1.0000 0.0000
vn 0.0000 1.0000 0.0000
vn 0.1580 0.0000 0.9874
vn -0.4424 0.0000 -0.8968
vn -0.1580 0.0000 0.9874
vn 0.0000 0.9993 0.0362
vn 0.5310 0.8468 0.0307
vn -0.0927 0.9442 -0.3159
vn -0.4277 0.8711 0.2416
vn -0.5173 0.8535 0.0625
vn 0.0000 0.9935 0.1139
vn 0.0000 -0.9899 0.1419
vn 0.4277 0.8711 0.2416
vn 0.0000 0.6571 0.7538
vn 0.0000 -0.9996 0.0279
vn 0.5173 0.8535 0.0625
vn 0.0000 0.9996 0.0266
vn 0.0000 0.9436 -0.3309
vn 0.0000 0.9844 0.1761
vn 0.5824 0.8119 0.0408
vn 0.0000 0.9034 -0.4287
vn 0.8368 0.0000 -0.5475
vn 0.7664 0.0000 0.6424
vn 0.7192 0.6948 0.0001
vn 0.7185 -0.6955 0.0000
vn -0.7192 -0.6948 0.0001
vn -0.7664 0.0000 0.6424
vn -0.8368 0.0000 -0.5475
vn -0.7185 0.6955 0.0000
vn 0.4424 0.0000 -0.8968
vn -0.5824 0.8119 0.0408
vn 0.0927 0.9442 -0.3159
vn 0.7185 0.6955 0.0000
vn 0.7192 -0.6948 0.0001
vn -0.7185 -0.6955 0.0000
vn -0.7192 0.6948 0.0001
usemtl Material
s off
f 7/1/1 23/2/1 5/3/1
f 3/4/2 8/5/2 4/6/2
f 8/7/3 18/8/3 6/9/3
f 2/10/4 8/7/4 6/9/4
f 1/11/5 14/12/5 2/10/5
f 2/10/6 9/13/6 1/11/6
f 11/14/7 10/15/7 12/16/7
f 5/17/8 12/16/8 6/18/8
f 6/9/9 10/15/9 2/10/9
f 1/11/10 11/19/10 5/3/10
f 20/20/11 48/21/11 18/8/11
f 4/6/5 14/12/5 16/22/5
f 3/4/5 13/23/5 1/11/5
f 4/6/5 15/24/5 3/4/5
f 16/22/11 40/25/11 43/26/11
f 7/1/3 17/27/3 19/28/3
f 6/18/3 17/29/3 5/17/3
f 7/30/3 20/31/3 8/5/3
f 15/24/12 37/32/12 13/23/12
f 19/28/12 46/33/12 49/34/12
f 38/35/5 44/36/5 39/37/5
f 16/22/13 42/38/13 15/24/13
f 18/39/14 46/40/14 17/29/14
f 50/41/3 47/42/3 52/43/3
f 19/44/15 51/45/15 20/31/15
f 23/2/16 22/46/16 21/47/16
f 3/4/17 21/47/17 22/46/17
f 5/3/18 36/48/18 34/49/18
f 24/50/19 26/51/19 28/52/19
f 26/51/20 32/53/20 28/52/20
f 24/50/21 27/54/21 22/46/21
f 3/4/22 26/55/22 7/30/22
f 22/46/23 25/56/23 3/4/23
f 29/57/24 32/58/24 30/59/24
f 25/56/25 30/59/25 26/55/25
f 25/56/26 31/60/26 29/57/26
f 28/52/27 31/60/27 27/54/27
f 34/49/28 35/61/28 33/62/28
f 21/47/29 36/48/29 23/2/29
f 1/11/30 35/61/30 21/47/30
f 5/3/31 33/62/31 1/11/31
f 39/37/32 37/32/32 38/35/32
f 43/26/33 41/63/33 42/38/33
f 42/38/34 38/35/34 37/32/34
f 43/26/35 39/37/35 44/36/35
f 51/64/36 47/65/36 48/21/36
f 49/66/37 52/67/37 51/45/37
f 48/68/38 45/69/38 46/40/38
f 49/34/39 45/70/39 50/71/39
f 13/23/40 40/25/40 14/12/40
f 7/1/1 24/50/1 23/2/1
f 3/4/2 7/30/2 8/5/2
f 8/7/3 20/20/3 18/8/3
f 2/10/4 4/6/4 8/7/4
f 1/11/5 13/23/5 14/12/5
f 2/10/6 10/15/6 9/13/6
f 11/14/7 9/13/7 10/15/7
f 5/17/8 11/14/8 12/16/8
f 6/9/9 12/72/9 10/15/9
f 1/11/10 9/13/10 11/19/10
f 20/20/11 51/64/11 48/21/11
f 4/6/5 2/10/5 14/12/5
f 3/4/5 15/24/5 13/23/5
f 4/6/5 16/22/5 15/24/5
f 16/22/11 14/12/11 40/25/11
f 7/1/3 5/3/3 17/27/3
f 6/18/3 18/39/3 17/29/3
f 7/30/3 19/44/3 20/31/3
f 15/24/12 42/38/12 37/32/12
f 19/28/12 17/27/12 46/33/12
f 38/35/5 41/63/5 44/36/5
f 16/22/13 43/26/13 42/38/13
f 18/39/14 48/68/14 46/40/14
f 50/41/3 45/69/3 47/42/3
f 19/44/15 49/66/15 51/45/15
f 23/2/16 24/50/16 22/46/16
f 3/4/17 1/11/17 21/47/17
f 5/3/41 23/2/41 36/48/41
f 24/50/19 7/1/19 26/51/19
f 26/51/20 30/73/20 32/53/20
f 24/50/21 28/52/21 27/54/21
f 3/4/22 25/56/22 26/55/22
f 22/46/23 27/54/23 25/56/23
f 29/57/24 31/60/24 32/58/24
f 25/56/25 29/57/25 30/59/25
f 25/56/26 27/54/26 31/60/26
f 28/52/27 32/53/27 31/60/27
f 34/49/28 36/48/28 35/61/28
f 21/47/29 35/61/29 36/48/29
f 1/11/42 33/62/42 35/61/42
f 5/3/31 34/49/31 33/62/31
f 39/37/32 40/25/32 37/32/32
f 43/26/33 44/36/33 41/63/33
f 42/38/43 41/63/43 38/35/43
f 43/26/44 40/25/44 39/37/44
f 51/64/45 52/74/45 47/65/45
f 49/66/37 50/75/37 52/67/37
f 48/68/38 47/42/38 45/69/38
f 49/34/46 46/33/46 45/70/46
f 13/23/40 37/32/40 40/25/40
