# Blender v2.83.5 OBJ File: 'ship.blend'
# www.blender.org
mtllib ship1.mtl
o Cube
v 2.138506 -0.500000 0.227012
v 2.138506 -0.500000 -0.272988
v -0.361494 -0.500000 0.227012
v -0.361494 -0.500000 -0.272988
v 2.138506 0.500000 0.227012
v 2.138506 0.500000 -0.272988
v -0.361494 0.500000 0.227012
v -0.361494 0.500000 -0.272988
v 2.638506 -0.250000 0.177012
v 2.638506 -0.250000 -0.222988
v 2.638506 0.250000 0.177012
v 2.638506 0.250000 -0.222988
v -0.861494 -0.700000 0.227012
v -0.861494 -0.700000 -0.272988
v -0.861494 0.700000 0.227012
v -0.861494 0.700000 -0.272988
v -1.861494 -0.700000 0.227012
v -1.861494 -0.700000 -0.272988
v -1.861494 0.700000 0.227012
v -1.861494 0.700000 -0.272988
v -1.061494 -0.700000 0.127012
v -1.061494 -0.700000 -0.172988
v -1.661494 -0.700000 0.127012
v -1.661494 -0.700000 -0.172988
v -1.061494 -1.200000 0.127012
v -1.061494 -1.200000 -0.172988
v -1.661494 -1.200000 0.127012
v -1.661494 -1.200000 -0.172988
v -1.061494 0.700000 0.127012
v -1.061494 0.700000 -0.172988
v -1.661494 0.700000 0.127012
v -1.661494 0.700000 -0.172988
v -1.061494 1.200000 0.127012
v -1.061494 1.200000 -0.172988
v -1.661494 1.200000 0.127012
v -1.661494 1.200000 -0.172988
v -2.511783 -0.775000 0.082012
v -2.511783 -0.775000 -0.127988
v -2.511783 -1.125000 0.082012
v -2.511783 -1.125000 -0.127988
v -2.511783 0.775000 0.082012
v -2.511783 0.775000 -0.127988
v -2.511783 1.125000 0.082012
v -2.511783 1.125000 -0.127988
v -1.861494 -0.350000 0.102012
v -1.861494 -0.350000 -0.147988
v -1.861494 0.350000 0.102012
v -1.861494 0.350000 -0.147988
v -2.361494 -0.210000 0.052012
v -2.361494 -0.210000 -0.097988
v -2.361494 0.210000 0.052012
v -2.361494 0.210000 -0.097988
vt 0.875000 0.500000
vt 0.625000 0.750000
vt 0.625000 0.500000
vt 0.125000 0.750000
vt 0.375000 0.750000
vt 0.125000 0.750000
vt 0.625000 0.000000
vt 0.375000 0.250000
vt 0.375000 0.000000
vt 0.375000 0.500000
vt 0.125000 0.500000
vt 0.375000 0.750000
vt 0.625000 0.250000
vt 0.375000 0.250000
vt 0.625000 0.250000
vt 0.375000 0.500000
vt 0.875000 0.500000
vt 0.625000 0.500000
vt 0.125000 0.750000
vt 0.875000 0.750000
vt 0.625000 0.750000
vt 0.625000 0.000000
vt 0.625000 0.750000
vt 0.375000 0.750000
vt 0.375000 0.750000
vt 0.625000 0.750000
vt 0.875000 0.750000
vt 0.375000 1.000000
vt 0.625000 1.000000
vt 0.375000 1.000000
vt 0.375000 0.750000
vt 0.375000 0.750000
vt 0.375000 0.750000
vt 0.625000 0.750000
vt 0.625000 0.750000
vt 0.375000 0.750000
vt 0.375000 0.750000
vt 0.125000 0.750000
vt 0.125000 0.750000
vt 0.125000 0.750000
vt 0.875000 0.750000
vt 0.875000 0.750000
vt 0.875000 0.750000
vt 0.375000 0.000000
vt 0.625000 0.000000
vt 0.375000 0.000000
vt 0.625000 0.000000
vt 0.625000 0.000000
vt 0.375000 0.000000
vt 0.875000 0.750000
vt 0.875000 0.750000
vt 0.625000 0.750000
vt 0.625000 0.750000
vt 0.625000 0.750000
vt 0.625000 1.000000
vt 0.375000 1.000000
vt 0.375000 1.000000
vt 0.875000 0.750000
vt 0.375000 0.750000
vt 0.375000 0.000000
vt 0.625000 0.000000
vt 0.125000 0.750000
vt 0.125000 0.750000
vt 0.375000 1.000000
vt 0.625000 1.000000
vt 0.625000 1.000000
vt 0.625000 0.750000
vt 0.625000 1.000000
vt 0.125000 0.750000
vt 0.625000 0.750000
vt 0.375000 1.000000
vt 0.375000 0.750000
vt 0.125000 0.750000
vt 0.875000 0.750000
vt 0.125000 0.500000
vt 0.375000 0.000000
vt 0.625000 1.000000
vt 0.875000 0.750000
vt 0.125000 0.750000
vt 0.875000 0.750000
vn 0.0000 0.0000 1.0000
vn -0.0000 -0.0000 -1.0000
vn 0.0000 1.0000 0.0000
vn 0.0000 -1.0000 0.0000
vn 0.4472 0.8944 -0.0000
vn 1.0000 -0.0000 0.0000
vn 0.0995 0.0000 -0.9950
vn 0.0995 0.0000 0.9950
vn 0.4472 -0.8944 0.0000
vn 0.3714 -0.9285 0.0000
vn 0.3714 0.9285 -0.0000
vn -1.0000 -0.0000 0.0000
vn -0.0528 -0.0000 -0.9986
vn -0.0528 0.0000 0.9986
vn -0.0879 -0.9961 0.0000
vn -0.0879 0.9961 0.0000
vn -0.2696 0.9630 0.0000
vn -0.0995 -0.0000 -0.9950
vn -0.2696 -0.9630 0.0000
vn -0.0995 0.0000 0.9950
usemtl Material
s off
f 5/1/1 3/2/1 1/3/1
f 8/4/2 14/5/2 16/6/2
f 7/7/3 6/8/3 8/9/3
f 2/10/2 8/4/2 6/11/2
f 1/3/4 4/12/4 2/10/4
f 5/13/5 12/14/5 6/8/5
f 11/15/6 10/16/6 12/14/6
f 6/11/7 10/16/7 2/10/7
f 1/3/8 11/17/8 5/1/8
f 2/10/9 9/18/9 1/3/9
f 14/5/2 20/19/2 16/6/2
f 7/20/1 13/21/1 3/2/1
f 3/2/10 14/5/10 4/12/10
f 8/9/11 15/22/11 7/7/11
f 17/23/12 46/24/12 18/25/12
f 18/25/4 23/26/4 17/23/4
f 15/27/1 17/23/1 13/21/1
f 20/28/3 31/29/3 32/30/3
f 22/31/2 28/32/2 24/33/2
f 17/23/4 21/34/4 13/21/4
f 13/21/4 22/31/4 14/5/4
f 14/5/4 24/33/4 18/25/4
f 25/35/4 28/32/4 26/36/4
f 21/34/6 26/36/6 22/31/6
f 23/26/1 25/35/1 21/34/1
f 28/32/13 38/37/13 24/33/13
f 32/38/2 34/39/2 30/40/2
f 19/41/3 29/42/3 31/43/3
f 20/19/3 30/40/3 16/6/3
f 16/44/3 29/45/3 15/22/3
f 34/46/3 35/47/3 33/48/3
f 30/49/6 33/48/6 29/45/6
f 31/43/1 33/50/1 35/51/1
f 23/26/14 39/52/14 27/53/14
f 38/37/12 39/52/12 37/54/12
f 41/55/12 44/56/12 42/57/12
f 35/51/14 41/58/14 31/43/14
f 28/32/15 39/52/15 40/59/15
f 35/47/16 44/60/16 43/61/16
f 24/33/16 37/54/16 23/26/16
f 32/38/13 44/62/13 36/63/13
f 31/29/15 42/57/15 32/30/15
f 48/64/17 51/65/17 47/66/17
f 19/41/12 45/67/12 17/23/12
f 20/28/12 47/66/12 19/68/12
f 18/25/12 48/69/12 20/19/12
f 49/70/12 52/71/12 50/72/12
f 46/24/18 52/73/18 48/69/18
f 45/67/19 50/72/19 46/24/19
f 47/74/20 49/70/20 45/67/20
f 5/1/1 7/20/1 3/2/1
f 8/4/2 4/12/2 14/5/2
f 7/7/3 5/13/3 6/8/3
f 2/10/2 4/12/2 8/4/2
f 1/3/4 3/2/4 4/12/4
f 5/13/5 11/15/5 12/14/5
f 11/15/6 9/18/6 10/16/6
f 6/11/7 12/75/7 10/16/7
f 1/3/8 9/18/8 11/17/8
f 2/10/9 10/16/9 9/18/9
f 14/5/2 18/25/2 20/19/2
f 7/20/1 15/27/1 13/21/1
f 3/2/10 13/21/10 14/5/10
f 8/9/11 16/44/11 15/22/11
f 17/23/12 45/67/12 46/24/12
f 18/25/4 24/33/4 23/26/4
f 15/27/1 19/41/1 17/23/1
f 20/28/3 19/68/3 31/29/3
f 22/31/2 26/36/2 28/32/2
f 17/23/4 23/26/4 21/34/4
f 13/21/4 21/34/4 22/31/4
f 14/5/4 22/31/4 24/33/4
f 25/35/4 27/53/4 28/32/4
f 21/34/6 25/35/6 26/36/6
f 23/26/1 27/53/1 25/35/1
f 28/32/13 40/59/13 38/37/13
f 32/38/2 36/63/2 34/39/2
f 19/41/3 15/27/3 29/42/3
f 20/19/3 32/38/3 30/40/3
f 16/44/3 30/49/3 29/45/3
f 34/46/3 36/76/3 35/47/3
f 30/49/6 34/46/6 33/48/6
f 31/43/1 29/42/1 33/50/1
f 23/26/14 37/54/14 39/52/14
f 38/37/12 40/59/12 39/52/12
f 41/55/12 43/77/12 44/56/12
f 35/51/14 43/78/14 41/58/14
f 28/32/15 27/53/15 39/52/15
f 35/47/16 36/76/16 44/60/16
f 24/33/16 38/37/16 37/54/16
f 32/38/13 42/79/13 44/62/13
f 31/29/15 41/55/15 42/57/15
f 48/64/17 52/71/17 51/65/17
f 19/41/12 47/74/12 45/67/12
f 20/28/12 48/64/12 47/66/12
f 18/25/12 46/24/12 48/69/12
f 49/70/12 51/65/12 52/71/12
f 46/24/18 50/72/18 52/73/18
f 45/67/19 49/70/19 50/72/19
f 47/74/20 51/80/20 49/70/20
